<svg width="54" height="53" viewBox="0 0 54 53" fill="none" xmlns="http://www.w3.org/2000/svg">
<path d="M51.7 45.3C53.5 47.1 53.5 49.9 51.7 51.7C50.8 52.6 49.7 53 48.5 53C47.3 53 46.2 52.6 45.3 51.7L27 33.4L8.7 51.7C7.8 52.6 6.7 53 5.5 53C4.3 53 3.2 52.6 2.3 51.7C0.499999 49.9 0.499999 47.1 2.3 45.3L20.6 27L2.3 8.70001C0.499999 6.90001 0.499999 4.10001 2.3 2.30001C4.1 0.500012 6.9 0.500012 8.7 2.30001L27 20.6L45.3 2.30001C47.1 0.500012 49.9 0.500012 51.7 2.30001C53.5 4.10001 53.5 6.90001 51.7 8.70001L33.4 27L51.7 45.3Z" fill="#CDCDCD"/>
</svg>
